<svg id="Camada_1" data-name="Camada 1" xmlns="http://www.w3.org/2000/svg" viewBox="0 0 969.45 459.21"><defs><style>.cls-1{fill:#fff;}</style></defs><title>logo</title><path class="cls-1" d="M160.78,109.64c-1.11-2-2.23-4.08-3.42-6.07l-.13.09c.41,7.14-3.06,11.37-6.83,13.78-6.19,4-14.08,2.49-19-5.18-7.25-11.31-6.71-27.34,11.12-38.78a52.56,52.56,0,0,1,13.71-6l7.43,19.27A99.42,99.42,0,0,0,172,102.47ZM147.4,83.45A17.16,17.16,0,0,0,145,84.72c-5.52,3.54-5.53,12.11-2.21,17.29,2.12,3.29,4.79,3.76,6.75,2.51,2.22-1.43,4.13-5.41.23-14.88Z"/><path class="cls-1" d="M174.48,88.43c2.81.44,8.45.91,12.65-.3,2.85-.82,3.81-2.2,3.44-3.47-.41-1.44-2-2.13-6-2.5-5.16-.49-11-2.17-12.55-7.69-2.47-8.57,3.83-15.79,14.49-18.86,5.09-1.47,9.3-1.6,11.79-1.08l-.5,9.94a24.08,24.08,0,0,0-9.47.8c-2.59.75-4,2-3.61,3.48.31,1.08,2.29,1.81,6,2.21,4.35.4,11.09,1.27,13,7.74,2.59,9-4.22,16-15.3,19.24-5.42,1.56-11.21,1.67-14.48.42Z"/><path class="cls-1" d="M210.18,79.41c2.56,1.13,7.74,2.94,12,2.83,3.13-.09,4.57-1.37,4.53-2.9s-1.42-2.77-5.24-4.2c-4.9-1.83-9.84-4.93-10-10.52-.23-8.69,7.49-14.1,18.32-14.4,5.14-.14,9.18.79,11.39,1.9l-2.86,9.08a23.1,23.1,0,0,0-9.18-1.61c-2.83.08-4.67,1.1-4.62,2.8,0,1.3,1.79,2.54,5.37,3.92,4.17,1.56,10.17,4.16,10.35,10.67.25,9.25-7.95,14.33-19.18,14.64-5.53.14-11-1.2-13.76-3.16Z"/><path class="cls-1" d="M291.19,78.32c-3.92,14.51-16.89,20.47-30.52,16.79-9.63-2.61-16-10.48-13.11-21.25,3.57-13.17,16.14-20.49,30.26-16.67C288.16,60,293.83,68.55,291.19,78.32ZM260,77.06c-1.33,4.91.76,8.4,4.86,9.51,6.45,1.74,12.12-4.89,13.79-11.06,1-3.82.33-8.34-4.67-9.69C266.9,63.9,261.48,71.58,260,77.06Z"/><path class="cls-1" d="M312.77,116.79a29.4,29.4,0,0,1-12-4.55C292.24,106.88,289,98,294.63,88.93,302,77.2,317.1,74.1,330.25,82.32A24.88,24.88,0,0,1,337,88.49l-6.81,5.64a14.76,14.76,0,0,0-4.77-4.47,14.38,14.38,0,0,0-20.26,4.5c-3.12,5-1.33,9.55,2.94,12.21a20.37,20.37,0,0,0,8.69,3.07Z"/><path class="cls-1" d="M315.33,121.36l32.22-23.07,7,6.71-32.22,23.07Zm40.73-29.94a5.66,5.66,0,0,1,8.19-.11,5,5,0,0,1,.27,7.36c-2.4,2.47-5.84,2.27-8.28,0A4.92,4.92,0,0,1,356.06,91.42Z"/><path class="cls-1" d="M344.66,156.28c2-1.29,5.17-2.95,8.54-4.64l-.09-.14c-8.77.89-14.22-2.31-17.33-7.07-4.07-6.21-2-13.51,4.61-17.81,11.52-7.54,28.37-6.19,38.41,9.13A46.57,46.57,0,0,1,384,146.92l-18.71,7.59a90.87,90.87,0,0,0-16.15,8.66Zm29.23-14.58a16.44,16.44,0,0,0-2.05-4.06c-5.12-7.82-16.85-9.52-25.18-4.07-3.43,2.24-5.7,5.81-3.06,9.85,2.79,4.25,11,6.25,21.07,2.05Z"/><path class="cls-1" d="M358.46,189.13l-4.78-1.72c.23,2.7-1,5-3.49,5.79-4.66,1.42-8.33-2.28-9.74-6.88a10.19,10.19,0,0,1-.25-5.75l4.15.48a7.72,7.72,0,0,0,.09,4.41c.52,1.67,1.91,3,3.62,2.44,1.49-.46,2-2.3,1.17-6.09l7.76,2.55Zm4.14,8.08a29.4,29.4,0,0,1-6.35-11.43c-3.08-10.06,1.43-17.86,10.08-20.51,13.23-4.06,27.16,3.13,31.45,17.13a22.21,22.21,0,0,1,.84,9.5l-6.57-.31a16.42,16.42,0,0,0-.62-7.59c-3-9.87-13.33-13.52-21.69-10.95-6.06,1.86-8.56,6.66-6.67,12.81a22,22,0,0,0,5.23,8.84Z"/><path class="cls-1" d="M362.84,230a85.05,85.05,0,0,1,10.73.81v-.16c-8.49-4.17-11.8-10.08-11.87-16.33-.1-7.62,5.79-12.51,13.29-12.6,14-.18,27.3,10.71,27.51,28.3a45.52,45.52,0,0,1-1.42,11.69l-19.57-3.54a88.45,88.45,0,0,0-18.58-1.4Zm33.4,3.66a17.84,17.84,0,0,0,.55-5.26c-.13-10.32-9.32-19.3-20.64-19.16-4.13,0-8.69,1.83-8.62,7.59.08,6,7.05,13,18.17,14.95Zm11.95-17c5,.63,8.4,2.9,8.45,6.44,0,2.23-.76,3.39-1.81,5.27a6.83,6.83,0,0,0-1.31,3.32c0,1.39.79,1.94,3.54,2.46l.05,4c-5.39-.71-8.16-2.58-8.21-6.36a9.37,9.37,0,0,1,1.65-5.16,6.44,6.44,0,0,0,1.39-3.46c0-1.5-1.62-2.06-3.7-2.46Z"/><path class="cls-1" d="M372.21,288.26c-11.58-3.55-19.38-15.78-15.51-28.42,3.14-10.2,12.42-13.69,20.91-11.08,12.95,4,19.79,16.45,16.12,28.42C390.37,288.13,380.79,290.89,372.21,288.26Zm3.84-33.87c-7-2.16-13.29,1.09-15.25,7.46-2.46,8,3,17.71,13.13,20.82,4.64,1.43,13,1.17,15.62-7.24C392.31,266.44,385.76,257.37,376.05,254.39Z"/><path class="cls-1" d="M358.73,365.46l-29.46-37c-2.31-2.85-4.73-5.7-7.21-8.2l3.42-4,5.62,6.63.11-.12c-1.93-7.11-1.1-13.4,3.1-18.29,5.62-6.54,13.56-5.1,19.46,0a25.85,25.85,0,0,1,2.8,36.27,23.16,23.16,0,0,1-6.4,5.32l12.23,15.13Zm-11.64-23.22a17.26,17.26,0,0,0,6.29-4.81c6.87-8,6-20.44-3-28.15-3.51-3-9.16-5.75-13.88-.25-4.16,4.85-3.54,15.35,2.31,22.64Z"/><path class="cls-1" d="M292.48,344.16a28.27,28.27,0,0,1,9.63-10.11c9.08-5.88,17.08-2.15,21.68,5,6.54,10.07,5.27,25.8-5.2,32.6-6.59,4.27-12.45,2.74-15.38-1.78-5.77-8.9,4.18-17.63,17.05-25.56a15.37,15.37,0,0,0-5.1-6.27c-3.66-2.31-7.67-2-11.41.47a23.63,23.63,0,0,0-8.08,8.67Zm24.4,23.28c6.34-4.11,7.05-13.33,5.23-19.13-10.38,6.5-17.89,12.81-14.31,18.33C309.81,369.74,313.43,369.67,316.88,367.44Z"/><path class="cls-1" d="M276.21,334.25l-.46,39.45c0,4.83.24,12.65.54,16.67l-12.1,2.14-.29-5.15-.16,0a16.52,16.52,0,0,1-11.68,8.25c-8.71,1.54-15.16-4.35-16.74-13.26-2.38-13.44,4.82-26.48,19.26-29a15.14,15.14,0,0,1,7.83.49l.16,0,.28-17.19ZM262.3,364.58a7.08,7.08,0,0,0-5.58-1.15c-5.41,1-8.68,8.57-7.41,15.77.52,2.95,2.57,5.46,5.87,4.87,4.59-.81,7.26-6.18,7.28-13.93Z"/><path class="cls-1" d="M228,369c-2.37-1.49-7.23-4-11.47-4.55-3.11-.37-4.72.69-4.9,2.2s1,3,4.56,4.93c4.59,2.52,9,6.31,8.36,11.86-1,8.64-9.47,12.87-20.22,11.58-5.11-.61-9-2.12-11-3.54l4.15-8.56a23.06,23.06,0,0,0,8.85,2.93c2.81.34,4.78-.41,5-2.1.15-1.29-1.4-2.78-4.74-4.67-3.9-2.15-9.46-5.59-8.69-12.06,1.1-9.18,10-13,21.11-11.69,5.49.66,10.7,2.78,13.16,5.13Z"/><path class="cls-1" d="M173,397.39c-1.35,4.07-5.4,5.29-8.81,4.16s-5.2-4-4-7.54c1.34-4,5.25-5.27,9-4A5.68,5.68,0,0,1,173,397.39ZM197.25,353l-19.38,34.83L166.26,384l19.37-34.83Z"/><path class="cls-1" d="M150,332.82a29.29,29.29,0,0,1,12,4.2c8.6,5,12.73,13.81,7.06,23.55-6.95,12-22,15.31-35.64,7.35a26,26,0,0,1-7-5.78l7.22-6.46a14.23,14.23,0,0,0,4.64,4c7.7,4.47,15.44,1.38,18.9-4.57,2.88-4.95.76-9.16-3.14-11.43a20,20,0,0,0-8.4-2.74Z"/><path class="cls-1" d="M128.07,309.82c-1.73,1.59-4.48,3.71-7.34,5.86l.11.12c8.31-2.32,14.15,0,18,4.09,5.15,5.5,4.47,13.24-1.42,18.77-10.08,9.45-26.76,10.89-39.68-2.88a48.47,48.47,0,0,1-7.41-10.59l17.11-10.68a91.5,91.5,0,0,0,14.41-11.34ZM102.32,329a16.5,16.5,0,0,0,2.62,3.5c6.13,6.54,17.39,6.26,24.3-.21,3-2.77,4.33-6.57,1.24-9.87-3.27-3.48-11.15-4.22-20.33,1.68Z"/><path class="cls-1" d="M118.08,298.83,91.16,305.9c-4.33,1.07-8,2.21-11.22,3.19L76.56,302l7.26-2.35-.07-.15c-6.62-1-11.62-4.64-14.14-9.95-2.28-4.83-1.88-10.89,5.77-14.52a43.68,43.68,0,0,1,5.94-2.09l21.78-5.67,3.77,8-21,5.5a29.13,29.13,0,0,0-4.45,1.57c-3.42,1.62-5.35,4.08-3.45,8.09,2,4.24,9.65,7.63,19.19,5.08l17.17-4.55Z"/><path class="cls-1" d="M40.07,226.26l13.08,9.56.76,6.27-12.73-6.64Zm56.53,5.62a87.09,87.09,0,0,1-10.3.37v.16C94.93,235.58,98.66,241,99.39,247c.91,7.54-4.36,13.14-12,14.06-13.85,1.67-28.2-7.49-30.35-25.38a46.72,46.72,0,0,1,.2-12.16L77.17,225a89.36,89.36,0,0,0,18.52-.61Zm-33.1.05a17.41,17.41,0,0,0,0,5c1.18,9.8,11,17.24,21.62,16,4.08-.49,8.09-2.75,7.45-8.06-.66-5.53-7.77-11.46-18.9-12.16Z"/><path class="cls-1" d="M96.56,216.67,40.77,199.75l.76-7.15,55.78,16.92Z"/><path class="cls-1" d="M52.41,178.48a4,4,0,0,1-3.07-4.79A3.75,3.75,0,0,1,54,171a4,4,0,0,1,3,4.9A3.66,3.66,0,0,1,52.41,178.48Zm46.43,19.94L63.09,182.2l1.32-5.49,35.75,16.21Z"/><path class="cls-1" d="M98.57,180.13a14.65,14.65,0,0,0,5.11-6.08c2.14-5,.21-10.08-3.76-11.78-3.24-1.37-5.69-1.12-10.17,2.45s-8.38,3.56-11.4,2.27c-5.37-2.28-8-9.25-5.23-15.87a13.53,13.53,0,0,1,4.72-6l2.41,2.51a11.86,11.86,0,0,0-4.38,5.17c-1.85,4.34-.27,9,3.48,10.61,3.31,1.41,5.86.33,9.66-2.66,4.47-3.58,8.41-3.64,11.57-2.29,6.85,2.92,8.71,10.58,6,17.05a15,15,0,0,1-5.69,7Z"/><path class="cls-1" d="M127.76,133.62c-.13,2.09-1.09,6.93-5.05,12.36-6.22,8.53-15,7.27-21.27,2.7-9.69-7.06-14.26-22.37-7.29-31.94,4.57-6.26,10.23-6.29,14-3.56,8.79,6.4,1.71,18.56-7.07,30.07a17.79,17.79,0,0,0,7.92,4.88c4.7,1.15,8.66-.61,11.44-4.43a22.22,22.22,0,0,0,4.3-10.91ZM96.35,119.15c-4.7,6.46-1.83,16.37,2.46,21.87,7.78-10.26,13.39-20.12,7.31-24.55C102.7,114,99,115.53,96.35,119.15Z"/><path class="cls-1" d="M413.4,320l-32,18.65L370,319.07l87.86-51.15,11.41,19.6-32.41,18.87,55,94.39-23.41,13.63Z"/><path class="cls-1" d="M566,357.59l-27.46-47.18-75.31-45.62L490,249.16l29.25,21c8.57,6.15,14.92,10.76,22.34,16.63l.34-.2c-1.45-8.73-2.38-17.3-3.56-27.6l-3.73-35.78,26.45-15.4.36,88.31L589.36,344Z"/><path class="cls-1" d="M571,202l23.2-13.51,29.93,51.4.45-.26c.11-5.85.6-11.58,1-17L631,167.06l28.86-16.81-10.69,71.13,79.41,41.5-27.35,15.93-60.11-32.93-3,18,22.48,38.6L637.36,316Z"/><path class="cls-1" d="M696.38,129l26,44.66,46-26.79-26-44.67L765.8,88.59l66.37,114-23.41,13.63-28.53-49-46,26.79,28.53,49-23.41,13.63L673,142.64Z"/><path class="cls-1" d="M893,101.08l-43,25,17.56,30.17,48-28,11.17,19.17-71.45,41.61L789,75.08l69-40.15,11.17,19.18L823.56,80.63,839,107.08l43-25Z"/></svg>